<svg xmlns="http://www.w3.org/2000/svg" version="1.1" xmlnsXlink="http://www.w3.org/1999/xlink" xmlnsSvgjs="http://svgjs.dev/svgjs" width="1000" height="1000" viewBox="0 0 1000 1000"><rect width="1000" height="1000" fill="#000000"></rect><g transform="matrix(0.7,0,0,0.7,149.57575757575756,283.3785503996737)"><svg viewBox="0 0 396 247" data-background-color="#ffffff" preserveAspectRatio="xMidYMid meet" height="623" width="1000" xmlns="http://www.w3.org/2000/svg" xmlns:xlink="http://www.w3.org/1999/xlink"><g id="tight-bounds" transform="matrix(1,0,0,1,0.2400000000000091,-0.09999999999999432)"><svg viewBox="0 0 395.52 247.2" height="247.2" width="395.52"><g><svg></svg></g><g><svg viewBox="0 0 395.52 247.2" height="247.2" width="395.52"><g transform="matrix(1,0,0,1,75.54432,61.84380095490716)"><svg viewBox="0 0 244.43135999999998 123.51239809018567" height="123.51239809018567" width="244.43135999999998"><g><svg viewBox="0 0 244.43135999999998 123.51239809018567" height="123.51239809018567" width="244.43135999999998"><g><svg viewBox="0 0 244.43135999999998 123.51239809018567" height="123.51239809018567" width="244.43135999999998"><g><svg viewBox="0 0 244.43135999999998 123.51239809018567" height="123.51239809018567" width="244.43135999999998"><g id="textblocktransform"><svg viewBox="0 0 244.43135999999998 123.51239809018567" height="123.51239809018567" width="244.43135999999998" id="textblock"><g><svg viewBox="0 0 244.43135999999998 123.51239809018567" height="123.51239809018567" width="244.43135999999998"><g transform="matrix(1,0,0,1,0,0)"><svg width="244.43135999999998" viewBox="4.400000095367432 -37.599998474121094 75.4000015258789 38.099998474121094" height="123.51239809018567" data-palette-color="#0080ff"><path d="M5.2 0L5.2 0Q4.4 0 4.4-0.85L4.4-0.85 4.4-36.35Q4.4-37.1 5.1-37.1L5.1-37.1 11.65-37.1Q12.1-37.1 12.3-36.98 12.5-36.85 12.6-36.5L12.6-36.5 22.6-10.25Q22.8-9.8 23-9.83 23.2-9.85 23.35-10.3L23.35-10.3 33.2-36.3Q33.5-37.1 34.1-37.1L34.1-37.1 40.9-37.1Q41.55-37.1 41.55-36.35L41.55-36.35 41.55-0.9Q41.55 0 40.65 0L40.65 0 36.35 0Q35.9 0 35.7-0.18 35.5-0.35 35.5-0.8L35.5-0.8 35.5-28.2Q35.5-28.5 35.38-28.45 35.25-28.4 35.2-28.15L35.2-28.15 24.9-0.7Q24.65 0 23.95 0L23.95 0 20.95 0Q20.15 0 19.9-0.65L19.9-0.65 9.8-27.85Q9.65-28.15 9.55-28.15 9.45-28.15 9.45-27.85L9.45-27.85 9.45-0.7Q9.45-0.35 9.3-0.18 9.15 0 8.7 0L8.7 0 5.2 0ZM64.75 0.5L64.75 0.5Q59.9 0.5 56.3-1.8 52.7-4.1 50.77-8.35 48.85-12.6 48.85-18.4L48.85-18.4Q48.85-24.4 50.87-28.7 52.9-33 56.55-35.3 60.2-37.6 65.05-37.6L65.05-37.6Q68.7-37.6 71.72-36.15 74.75-34.7 76.67-32.38 78.6-30.05 79.05-27.4L79.05-27.4Q79.15-26.9 79.05-26.73 78.95-26.55 78.6-26.45L78.6-26.45 74.05-25.75Q73.75-25.7 73.62-25.85 73.5-26 73.45-26.35L73.45-26.35Q73.1-28.25 71.95-29.78 70.8-31.3 69.02-32.23 67.25-33.15 64.95-33.15L64.95-33.15Q61.85-33.15 59.65-31.55 57.45-29.95 56.32-26.75 55.2-23.55 55.2-18.7L55.2-18.7Q55.2-13.6 56.35-10.35 57.5-7.1 59.72-5.53 61.95-3.95 65.1-3.95L65.1-3.95Q67.25-3.95 68.9-4.65 70.55-5.35 71.65-6.55 72.75-7.75 73.35-9.15 73.95-10.55 74.1-11.95L74.1-11.95 74.15-14.45Q74.25-15.05 73.65-15.05L73.65-15.05 66.15-15.05Q65.85-15.05 65.7-15.18 65.55-15.3 65.55-15.65L65.55-15.65 65.55-18.3Q65.55-18.85 66.1-18.85L66.1-18.85 78.8-18.8Q79.3-18.8 79.55-18.57 79.8-18.35 79.8-18L79.8-18 79.8-0.65Q79.8-0.3 79.62-0.15 79.45 0 79.15 0L79.15 0 77.85 0Q77.5 0 77.22-0.13 76.95-0.25 76.8-0.65L76.8-0.65 76-4.95Q75.95-5.2 75.82-5.2 75.7-5.2 75.5-4.95L75.5-4.95Q74.6-3.55 73.17-2.3 71.75-1.05 69.67-0.28 67.6 0.5 64.75 0.5L64.75 0.5Z" opacity="1" transform="matrix(1,0,0,1,0,0)" fill="#ffffff" class="undefined-text-0" data-fill-palette-color="primary" id="text-0"></path></svg></g></svg></g></svg></g></svg></g><g></g></svg></g></svg></g></svg></g><g><path d="M116.082 32.685A122.216 122.216 0 0 1 279.438 32.685L268.299 32.685A111.077 111.077 0 0 0 127.221 32.685L116.082 32.685M116.082 214.515A122.216 122.216 0 0 0 279.438 214.515L268.299 214.515A111.077 111.077 0 0 1 127.221 214.515L116.082 214.515" fill="#0080ff" stroke="transparent" data-fill-palette-color="tertiary"></path></g></svg></g><defs></defs></svg><rect width="395.52" height="247.2" fill="none" stroke="none" visibility="hidden"></rect></g></svg></g></svg>